<?xml version="1.0" standalone="no"?>
<!DOCTYPE svg PUBLIC "-//W3C//DTD SVG 20010904//EN"
 "http://www.w3.org/TR/2001/REC-SVG-20010904/DTD/svg10.dtd">
<svg version="1.0" xmlns="http://www.w3.org/2000/svg"
 width="24.000000pt" height="24.000000pt" viewBox="0 0 24.000000 24.000000"
 preserveAspectRatio="xMidYMid meet">

<g transform="translate(0.000000,24.000000) scale(0.100000,-0.100000)"
fill="#000000" stroke="none">
<path d="M53 221 c-22 -11 -44 -29 -48 -40 -10 -32 36 -123 79 -156 l36 -27
36 27 c43 33 89 124 79 156 -8 23 -77 59 -115 59 -14 0 -44 -9 -67 -19z m87
-46 c0 -16 6 -25 15 -25 19 0 19 -1 -7 -55 -23 -46 -46 -56 -40 -17 2 17 -2
22 -18 22 -20 0 -20 1 5 50 28 55 45 64 45 25z"/>
<path d="M109 148 c-9 -16 -9 -23 0 -26 6 -2 11 -13 11 -25 1 -21 1 -21 15 3
19 33 18 40 -1 40 -10 0 -14 6 -10 15 8 23 -2 18 -15 -7z"/>
</g>
</svg>
