<svg
    xmlns="http://www.w3.org/2000/svg"
    version="1.1"
    width="515px"
    height="441px"
    viewBox="0 0 515 441"
>
	<defs>
		<linearGradient id="bgGradient" x1="0%" y1="0%" x2="100%" y2="0%">
			<stop offset="0%" stop-color="#0a9ed8" />
			<stop offset="100%" stop-color="#533389" />
		</linearGradient>
	</defs>
    <g
        fill="url(#bgGradient)"
        fill-rule="evenodd"
        transform="translate(-210,-179) scale(1.7)"
    >
        <path d="M392.29871,224.56945l0.03667,-0.50522c0.00293,-0.04474 0.00587,-0.08948 0.00733,-0.13423l0.01174,-0.50654c0.00147,-0.04533 0.00147,-0.09066 0,-0.13613l-0.01174,-0.50654c-0.00147,-0.04474 -0.0044,-0.08948 -0.00733,-0.13408l-0.03667,-0.50536c-0.0044,-0.04562 -0.0088,-0.09095 -0.0132,-0.13613l-0.06308,-0.50272c-0.00587,-0.0443 -0.01174,-0.08846 -0.01907,-0.13246l-0.08655,-0.4992c-0.0088,-0.0443 -0.01614,-0.08846 -0.0264,-0.13261l-0.11149,-0.49436c-0.01027,-0.04386 -0.02054,-0.08758 -0.03227,-0.131l-0.13496,-0.48835c-0.01174,-0.04313 -0.02494,-0.08596 -0.03961,-0.12865l-0.15843,-0.48116c-0.01467,-0.04342 -0.02934,-0.08655 -0.04694,-0.12938l-0.1819,-0.47265c-0.01614,-0.04137 -0.03374,-0.08259 -0.05134,-0.12352l-0.20537,-0.46326c-0.01907,-0.04107 -0.03814,-0.08171 -0.05721,-0.1219l-0.22884,-0.4527c-0.01907,-0.04019 -0.04107,-0.0798 -0.06308,-0.11897l-0.24938,-0.44082c-0.022,-0.03946 -0.04548,-0.07848 -0.07041,-0.11677l-0.27138,-0.42805c-0.02347,-0.0377 -0.04841,-0.07496 -0.07335,-0.11149l-0.29192,-0.41426c-0.0264,-0.03711 -0.05428,-0.07364 -0.08215,-0.10943l-0.31099,-0.39945c-0.02787,-0.03521 -0.05574,-0.06968 -0.08508,-0.10357l-0.33153,-0.38361c-0.02934,-0.03433 -0.05966,-0.06787 -0.09095,-0.10063l-0.34913,-0.36703c-0.01467,-0.01628 -0.03081,-0.03242 -0.04694,-0.04826l-0.81122,-0.81034l-0.80975,-0.81034l-0.80975,-0.81049l-3.24194,-3.24136l-5.67267,-5.67252l-8.10339,-8.10368l-0.81122,-0.81034l-0.80975,-0.81034l-1.62097,-1.62082l-4.0517,-4.0517l-0.80975,-0.81034l-1.62097,-1.62082l-8.10339,-8.10354l-2.43219,-2.43102l-0.80975,-0.81049l-8.10339,-8.10354l-2.43072,-2.43102l-3.24194,-3.2415l-0.80975,-0.81034l-0.81122,-0.81034l-0.80975,-0.81049l-0.81122,-0.81034l-0.80975,-0.81034l-0.80975,-0.81034l-0.81122,-0.81034l-0.80975,-0.81034l-0.81122,-0.81049l-7.29217,-7.2932l-3.24194,-3.24121l-1.62097,-1.62097l-0.80975,-0.81019l-1.62097,-1.62097l-0.81122,-0.81005l-0.80975,-0.81049l-0.80975,-0.81049l-8.10427,-8.10339l-13.7762,-13.77632l-3.24136,-3.24153l-0.55245,-0.55219c-0.01599,-0.01605 -0.03213,-0.03186 -0.04841,-0.04748l-0.36703,-0.3494c-0.03257,-0.03081 -0.06587,-0.06086 -0.0999,-0.09017l-0.38361,-0.33112c-0.03403,-0.02953 -0.0688,-0.05808 -0.1043,-0.08567l-0.39945,-0.31186c-0.03579,-0.02802 -0.07217,-0.05507 -0.10914,-0.08118l-0.41426,-0.29164c-0.03667,-0.02567 -0.07408,-0.05049 -0.11193,-0.07445l-0.42805,-0.27111c-0.03829,-0.0244 -0.07701,-0.04769 -0.11648,-0.06994l-0.44082,-0.24963c-0.03917,-0.02225 -0.07877,-0.04352 -0.11897,-0.06386l-0.45285,-0.2278c-0.04019,-0.0201 -0.08083,-0.03926 -0.1219,-0.05743l-0.46326,-0.20535c-0.04078,-0.01818 -0.082,-0.03529 -0.12352,-0.05133l-0.47265,-0.18256c-0.04269,-0.01646 -0.08582,-0.03187 -0.12924,-0.0462l-0.4813,-0.15882c-0.04254,-0.01411 -0.08552,-0.02716 -0.12894,-0.03914l-0.48835,-0.13508c-0.04327,-0.01198 -0.0867,-0.0229 -0.13056,-0.03273l-0.49451,-0.11102c-0.04401,-0.00985 -0.08816,-0.01861 -0.13246,-0.02631l-0.4992,-0.08663c-0.04415,-0.0077 -0.08831,-0.01422 -0.13261,-0.01957l-0.50272,-0.06225c-0.04518,-0.00556 -0.09051,-0.01005 -0.13599,-0.01347l-0.50536,-0.03721c-0.04474,-0.0032 -0.08948,-0.00546 -0.13408,-0.00674l-0.50668,-0.01251c-0.04533,-0.00107 -0.09066,-0.00107 -0.13599,0l-0.50668,0.01251c-0.04474,0.00128 -0.08948,0.00353 -0.13408,0.00674l-0.50536,0.03721c-0.04562,0.00342 -0.09095,0.00791 -0.13599,0.01347l-0.50287,0.06225c-0.0443,0.00535 -0.08846,0.01188 -0.13246,0.01957l-0.4992,0.08663c-0.0443,0.0077 -0.08846,0.01648 -0.13261,0.02631l-0.49436,0.11102c-0.04386,0.00985 -0.08743,0.02075 -0.13056,0.03273l-0.48835,0.13508c-0.04342,0.01197 -0.0864,0.02502 -0.12894,0.03914l-0.4813,0.15882c-0.04342,0.01433 -0.08655,0.02974 -0.12938,0.0462l-0.4725,0.18256c-0.04151,0.01604 -0.08274,0.03315 -0.12366,0.05133l-0.46326,0.20535c-0.04122,0.01819 -0.08215,0.03754 -0.12249,0.05808l-0.45241,0.2278c-0.04005,0.02011 -0.07951,0.04118 -0.11838,0.06321l-0.44082,0.24963c-0.03917,0.02202 -0.07789,0.04512 -0.11589,0.0693l-0.42835,0.27111c-0.03814,0.02418 -0.07555,0.04922 -0.11266,0.07509l-0.41412,0.29164c-0.03711,0.02611 -0.07349,0.05316 -0.10914,0.08118l-0.39945,0.31186c-0.0355,0.02759 -0.07027,0.05615 -0.1043,0.08567l-0.38375,0.33112c-0.03403,0.02932 -0.06719,0.05937 -0.09975,0.09017l-0.36703,0.3494c-0.01628,0.01561 -0.03242,0.03144 -0.04841,0.04748l-14.58654,14.58643l-8.10368,8.10368l-0.81034,0.81019l-5.67252,5.67267l-0.81034,0.81049l-2.43116,2.43102l-8.10354,8.10368l-0.81049,0.81019l-0.81034,0.81049l-4.0517,4.0517l-5.67252,5.67252l-0.81034,0.81049l-7.29335,7.2932l-0.81034,0.81034l-3.2415,3.2415l-0.81034,0.81034l-0.81034,0.81034l-0.81034,0.81034l-7.2932,7.29335l-0.81049,0.81034l-0.81034,0.81034l-2.43102,2.43102l-5.67252,5.67252l-1.62097,1.62082l-0.81005,0.81034l-1.62097,1.62068l-0.81019,0.81034l-2.43102,2.43116l-1.62097,1.62068l-8.10335,8.10368l-3.79372,3.79366c-0.01605,0.01584 -0.03177,0.03198 -0.04718,0.04826l-0.3494,0.36703c-0.03101,0.03242 -0.06117,0.06572 -0.09048,0.09961l-0.33112,0.38375c-0.02973,0.03447 -0.0586,0.06968 -0.08664,0.10562l-0.31153,0.39945c-0.02739,0.03506 -0.05379,0.07071 -0.07926,0.10709l-0.29197,0.41426c-0.0261,0.03697 -0.05123,0.07452 -0.0754,0.11266l-0.27111,0.42805c-0.0244,0.03829 -0.0477,0.07716 -0.06994,0.11677l-0.24963,0.44082c-0.02225,0.03917 -0.04352,0.07877 -0.06386,0.11897l-0.2278,0.4527c-0.0201,0.04019 -0.03926,0.08083 -0.05743,0.1219l-0.20535,0.46326c-0.01839,0.04137 -0.03572,0.08303 -0.05198,0.12513l-0.18224,0.47265c-0.01604,0.04166 -0.03102,0.08376 -0.04492,0.12616l-0.15915,0.4813c-0.01433,0.04313 -0.02759,0.08655 -0.03978,0.13012l-0.13508,0.48835c-0.01198,0.04342 -0.0229,0.08714 -0.03273,0.131l-0.11102,0.49436c-0.00985,0.04415 -0.01861,0.08831 -0.02631,0.13261l-0.08663,0.4992c-0.0077,0.04445 -0.01433,0.08919 -0.01989,0.13408l-0.06193,0.50272c-0.00535,0.04415 -0.00973,0.08831 -0.01316,0.13261l-0.03754,0.50522c-0.00342,0.04606 -0.00567,0.09198 -0.00674,0.13804l-0.01219,0.50668c-0.00107,0.04401 -0.00107,0.08807 0,0.13217l0.01219,0.50654c0.00107,0.04606 0.00331,0.09198 0.00674,0.13804l0.03754,0.50536c0.00343,0.04415 0.0078,0.08831 0.01316,0.13246l0.06193,0.50272c0.00556,0.04489 0.01219,0.08963 0.01989,0.13408l0.08663,0.49935c0.0077,0.0443 0.01648,0.08846 0.02631,0.13246l0.11102,0.49436c0.00985,0.04386 0.02075,0.08758 0.03273,0.131l0.13508,0.48835c0.01219,0.04357 0.02545,0.08699 0.03978,0.13026l0.15915,0.4813c0.01391,0.04225 0.02888,0.08435 0.04492,0.12601l0.18224,0.47265c0.01625,0.0421 0.03359,0.08391 0.05198,0.12513l0.20535,0.46326c0.01818,0.04107 0.03733,0.08171 0.05743,0.1219l0.2278,0.45285c0.02033,0.04019 0.0416,0.0798 0.06386,0.11897l0.24963,0.44082c0.02224,0.03931 0.04555,0.07819 0.06994,0.11648l0.27111,0.42805c0.02418,0.03829 0.0493,0.07599 0.0754,0.11295l0.29197,0.41412c0.02567,0.03638 0.05209,0.07217 0.07926,0.10723l0.31153,0.39945c0.02803,0.03579 0.0569,0.07085 0.08664,0.10533l0.33112,0.38361c0.02931,0.03403 0.05935,0.06733 0.09016,0.0999l0.34941,0.36703c0.01561,0.01628 0.03144,0.03242 0.04748,0.04841l8.91385,8.91417l3.24155,3.24121l1.62068,1.62097l0.81034,0.81019l0.81049,0.81034l0.81019,0.81049l0.81049,0.81019l8.91388,8.91461l0.81049,0.80975l0.81034,0.80975l1.62068,1.62097l1.62068,1.62097l2.43116,2.43072l4.05184,4.0517l3.24136,3.24194l0.81034,0.80975l0.81034,0.81122l1.62082,1.62097l0.81034,0.80975l1.62068,1.62097l6.02048,6.02033h7.78653l-0.18938,-0.18924l-0.81049,-0.80975l-0.81034,-0.81122l-8.10354,-8.10339l-1.62082,-1.62097l-0.81034,-0.80975l-1.62068,-1.62097l-1.62068,-1.62097l-3.2415,-3.24194l-4.05184,-4.0517l-2.43102,-2.43072l-1.62082,-1.62097l-2.43102,-2.43072l-0.81034,-0.81122l-8.10354,-8.10266l-0.81049,-0.81049l-0.81019,-0.81049l-0.81049,-0.81019l-0.81049,-0.81049l-0.81005,-0.81034l-0.81049,-0.81019l-0.81049,-0.81049l-3.24121,-3.2415l-8.89014,-8.88982l-0.27978,-0.29383l-0.24257,-0.28107l-0.22876,-0.29339l-0.21432,-0.3041l-0.19829,-0.31319l-0.18288,-0.32302l-0.16717,-0.33212l-0.15046,-0.33974l-0.1338,-0.34693l-0.1168,-0.35295l-0.09881,-0.35764l-0.0815,-0.36263l-0.06352,-0.366l-0.04556,-0.36938l-0.02727,-0.36996l-0.00899,-0.37143l0.00899,-0.37158l0.02727,-0.36996l0.04556,-0.36938l0.06352,-0.366l0.0815,-0.36263l0.09881,-0.35764l0.1168,-0.35295l0.1338,-0.34693l0.15046,-0.33974l0.16717,-0.33212l0.18288,-0.32302l0.19829,-0.31319l0.21464,-0.3041l0.22843,-0.29295l0.24257,-0.28107l0.27978,-0.29398l3.76966,-3.76975l8.10366,-8.10354l1.62068,-1.62082l2.43102,-2.43102l0.81049,-0.81034l1.62068,-1.62082l8.10354,-8.10354l2.43116,-2.43116l0.81034,-0.81034l0.81034,-0.81034l7.2932,-7.2932l0.81034,-0.81034l0.81034,-0.81049l7.29335,-7.2932l4.05184,-4.05184l1.62068,-1.62068l5.67252,-5.67252l4.05184,-4.05184l0.81034,-0.81034l0.81034,-0.81034l8.10368,-8.10368l2.43102,-2.43102l0.81034,-0.81049l5.67252,-5.67237l0.81034,-0.81049l8.10368,-8.10368l14.56234,-14.56237l0.29398,-0.27978l0.28165,-0.24287l0.29266,-0.22845l0.30322,-0.21369l0.31407,-0.19859l0.32375,-0.18351l0.33168,-0.16685l0.34018,-0.1508l0.3462,-0.1338l0.35221,-0.11614l0.35837,-0.09915l0.36263,-0.08149l0.36674,-0.06352l0.36864,-0.04589l0.36996,-0.02729l0.37158,-0.00898l0.37158,0.00898l0.36982,0.02729l0.36864,0.04589l0.36674,0.06352l0.36263,0.08149l0.35837,0.09915l0.35236,0.11614l0.3462,0.1338l0.34033,0.1508l0.33241,0.16716l0.32287,0.18288l0.31378,0.19861l0.30351,0.21401l0.29251,0.22843l0.2818,0.24288l0.29383,0.27978l0.52825,0.52844l3.2415,3.24124l23.49998,23.50066l0.81122,0.81049l0.80975,0.81005l6.48389,6.48315l7.29217,7.29305l0.81122,0.81034l0.80975,0.81049l0.81122,0.81034l0.80975,0.81034l0.80975,0.81034l0.81122,0.81034l0.80975,0.81034l0.81122,0.81049l0.80975,0.81034l3.24194,3.24136l2.43072,2.43116l8.10339,8.10354l0.81122,0.81034l2.43072,2.43116l8.10339,8.10354l1.62097,1.62082l0.80975,0.81034l4.0517,4.0517l0.81122,0.81034l0.80975,0.81049l0.80975,0.81034l0.81122,0.81034l8.10339,8.10368l5.67267,5.67237l3.24194,3.2415l0.80975,0.81034l0.80975,0.81034l0.78775,0.78657l0.27872,0.29324l0.24205,0.28165l0.22884,0.29295l0.21417,0.30351l0.1995,0.31378l0.1819,0.32317l0.16723,0.33212l0.1511,0.34033l0.13349,0.3462l0.11589,0.35207l0.09975,0.35867l0.08068,0.36248l0.06455,0.36718l0.04548,0.3682l0.02787,0.36996l0.0088,0.37158l-0.0088,0.37143l-0.02787,0.36996l-0.04548,0.36835l-0.06455,0.36703l-0.08068,0.36263l-0.09975,0.35867l-0.11589,0.35192l-0.13349,0.3462l-0.1511,0.34048l-0.16723,0.33212l-0.1819,0.32302l-0.1995,0.31349l-0.21271,0.3038l-0.23031,0.29339l-0.24205,0.28136l-0.28019,0.29324l-1.33785,1.33888l-0.81122,0.81049l-0.80975,0.81019l-0.80975,0.81034l-10.53558,10.53485l-5.67267,5.67237l-3.24048,3.2415l-6.48389,6.4833l-1.6195,1.62097l-4.05316,4.0517l-0.80975,0.80975l-1.62097,1.62097l-7.29364,7.29364l-3.24048,3.24048l-0.81122,0.81122l-0.80975,0.80975l-0.80975,0.81122l-0.81122,0.80975l-4.49911,4.49911h7.78653l1.41707,-1.4156l0.80975,-0.81122l1.62097,-1.62097l3.24048,-3.24048l7.29364,-7.29364l34.036,-34.03527l0.80975,-0.81019l0.80975,-0.81049l2.17401,-2.17313c0.01614,-0.01599 0.03227,-0.03213 0.04694,-0.04841l0.34913,-0.36703c0.03227,-0.03286 0.06161,-0.06631 0.09242,-0.10078l0.33006,-0.38375c0.02934,-0.03374 0.05721,-0.06821 0.08508,-0.10327l0.31099,-0.39945c0.02787,-0.03579 0.05574,-0.07217 0.08215,-0.10914l0.29192,-0.41426c0.02494,-0.03682 0.04988,-0.07408 0.07335,-0.11193l0.27138,-0.42805c0.02494,-0.03829 0.04841,-0.07716 0.07041,-0.11677l0.24938,-0.44082c0.022,-0.03902 0.04401,-0.07848 0.06308,-0.11882l0.22884,-0.4527c0.01907,-0.04019 0.03814,-0.08083 0.05721,-0.1219l0.20537,-0.46326c0.0176,-0.04093 0.03521,-0.082 0.05134,-0.12352l0.1819,-0.47265c0.0176,-0.04283 0.03227,-0.08582 0.04694,-0.12924l0.15843,-0.4813c0.01369,-0.04254 0.02689,-0.08542 0.03961,-0.12865l0.13496,-0.48835c0.01174,-0.04342 0.022,-0.08714 0.03227,-0.131l0.11149,-0.49436c0.01027,-0.04401 0.0176,-0.08816 0.0264,-0.13246l0.08655,-0.49935c0.00733,-0.04401 0.0132,-0.08816 0.01907,-0.13246l0.06308,-0.50272c0.0044,-0.04518 0.0088,-0.09051 0.0132,-0.13613zM240.9896,284.81297v-42.23416l34.4331,16.90006v8.02711h16.2659l29.1304,14.31003l2.09773,-2.09773l-24.89064,-12.2123h37.10294l44.15057,-44.15057l-104.27938,-104.27861l-30.55377,30.55389h30.97625v67.59862l-67.08827,-31.48675l-20.29442,20.29442l23.37514,11.19233l50.06528,23.65958l1.26759,-2.53502l-21.75843,-9.92856v-10.1398l34.4331,16.05466v21.97011l-34.4331,-16.90021l-6.75982,-3.37984l-35.27806,-17.32225l1.68992,-3.59108l-14.68498,-6.99658l-15.23508,15.23508l61.45756,61.45756zM212.42074,181.65625l28.56885,2.82988v-31.39873z"></path>
        <path d="M229.3264,321.4462c-0.43139,0 -0.80116,-0.14893 -1.10929,-0.4468c-0.29787,-0.30814 -0.4468,-0.6779 -0.4468,-1.10929v-17.88735c0,-0.43139 0.14893,-0.79602 0.4468,-1.09389c0.30814,-0.30814 0.6779,-0.46221 1.10929,-0.46221c0.42112,0 0.78575,0.15407 1.09389,0.46221c0.29787,0.29787 0.4468,0.66249 0.4468,1.09389v16.34667h14.97546c0.42112,0 0.78575,0.14893 1.09389,0.4468c0.29787,0.30814 0.4468,0.67277 0.4468,1.09389c0,0.43139 -0.14893,0.80116 -0.4468,1.10929c-0.30814,0.29787 -0.67277,0.4468 -1.09389,0.4468z"></path>
        <path d="M251.40441,300.44667c-0.43139,0 -0.80116,0.15407 -1.10929,0.46221c-0.29787,0.29787 -0.4468,0.66249 -0.4468,1.09389v17.88735c0,0.43139 0.14893,0.80116 0.4468,1.10929c0.30814,0.29787 0.6779,0.4468 1.10929,0.4468h16.51614c0.42112,0 0.78575,-0.14893 1.09389,-0.4468c0.29787,-0.30814 0.4468,-0.6779 0.4468,-1.10929c0,-0.42112 -0.14893,-0.78575 -0.4468,-1.09389c-0.30814,-0.29787 -0.67277,-0.4468 -1.09389,-0.4468h-14.97546v-5.8546h14.97546c0.42112,0 0.78575,-0.14893 1.09389,-0.4468c0.29787,-0.30814 0.4468,-0.67277 0.4468,-1.09389c0,-0.43139 -0.14893,-0.79602 -0.4468,-1.09389c-0.30814,-0.30814 -0.67277,-0.46221 -1.09389,-0.46221h-14.97546v-5.8546h25.46752v16.34667c0,0.43139 0.14893,0.80116 0.4468,1.10929c0.30814,0.29787 0.67277,0.4468 1.09389,0.4468c0.43139,0 0.80116,-0.14893 1.10929,-0.4468c0.29787,-0.30814 0.4468,-0.6779 0.4468,-1.10929v-16.34667h11.87868c0.42112,0 0.78575,-0.14893 1.09389,-0.4468c0.29787,-0.29787 0.4468,-0.66249 0.4468,-1.09389c0,-0.43139 -0.14893,-0.79602 -0.4468,-1.09389c-0.30814,-0.30814 -0.67277,-0.46221 -1.09389,-0.46221z"></path>
        <path d="M298.76506,300.50829c-0.38004,0 -0.70358,-0.13353 -0.97063,-0.40058c-0.26705,-0.26705 -0.40058,-0.5906 -0.40058,-0.97063v-2.75783c0,-0.38004 0.13353,-0.70358 0.40058,-0.97063c0.26705,-0.26705 0.5906,-0.40058 0.97063,-0.40058c0.38004,0 0.70872,0.13353 0.98604,0.40058c0.26705,0.26705 0.40058,0.5906 0.40058,0.97063v2.75783c0,0.38004 -0.13353,0.70358 -0.40058,0.97063c-0.27732,0.26705 -0.606,0.40058 -0.98604,0.40058z"></path>
        <path d="M304.17287,321.4462c-0.43139,0 -0.80116,-0.14893 -1.10929,-0.4468c-0.29787,-0.30814 -0.4468,-0.6779 -0.4468,-1.10929c0,-0.42112 0.14893,-0.78575 0.4468,-1.09389c0.30814,-0.29787 0.6779,-0.4468 1.10929,-0.4468h12.03275c0.81143,0 1.4996,-0.28759 2.06452,-0.86278c0.57519,-0.56492 0.86278,-1.25309 0.86278,-2.06452c0,-0.80116 -0.28759,-1.48933 -0.86278,-2.06452c-0.56492,-0.57519 -1.25309,-0.86278 -2.06452,-0.86278h-1.03226c-0.42112,0 -0.78575,-0.14893 -1.09389,-0.4468c-0.29787,-0.30814 -0.4468,-0.67277 -0.4468,-1.09389c0,-0.43139 0.14893,-0.79602 0.4468,-1.09389c0.30814,-0.30814 0.67277,-0.46221 1.09389,-0.46221h1.03226c1.66394,0 3.08651,0.5906 4.2677,1.77179c1.17092,1.17092 1.75638,2.58835 1.75638,4.25229c0,1.66394 -0.58546,3.08137 -1.75638,4.25229c-1.18119,1.18119 -2.60376,1.77179 -4.2677,1.77179zM308.64086,312.49482c-1.66394,0 -3.08137,-0.58546 -4.25229,-1.75638c-1.18119,-1.18119 -1.77179,-2.60376 -1.77179,-4.2677c0,-1.65367 0.5906,-3.0711 1.77179,-4.25229c1.17092,-1.18119 2.58835,-1.77179 4.25229,-1.77179h12.04816c0.42112,0 0.78575,0.15407 1.09389,0.46221c0.29787,0.29787 0.4468,0.66249 0.4468,1.09389c0,0.43139 -0.14893,0.79602 -0.4468,1.09389c-0.30814,0.29787 -0.67277,0.4468 -1.09389,0.4468h-12.04816c-0.81143,0 -1.4996,0.28759 -2.06452,0.86278c-0.57519,0.57519 -0.86278,1.26336 -0.86278,2.06452c0,0.81143 0.28759,1.50474 0.86278,2.07992c0.56492,0.56492 1.25309,0.84738 2.06452,0.84738h1.03226c0.43139,0 0.79602,0.15407 1.09389,0.46221c0.29787,0.29787 0.4468,0.66249 0.4468,1.09389c0,0.42112 -0.14893,0.78575 -0.4468,1.09389c-0.29787,0.29787 -0.66249,0.4468 -1.09389,0.4468z"></path>
        <path d="M232.50005,356.43368c-1.29969,0 -2.41291,-0.46337 -3.33964,-1.39011c-0.92674,-0.92674 -1.39011,-2.03995 -1.39011,-3.33964v-13.62982c0,-1.31099 0.46337,-2.42986 1.39011,-3.3566c0.92674,-0.92674 2.03995,-1.39011 3.33964,-1.39011h15.15554c0.46337,0 0.86458,0.16953 1.20363,0.50858c0.32775,0.32775 0.49162,0.72896 0.49162,1.20363c0,0.47467 -0.16387,0.87588 -0.49162,1.20363c-0.33905,0.32775 -0.74026,0.49162 -1.20363,0.49162h-15.15554c-0.36165,0 -0.67245,0.12997 -0.93239,0.38991c-0.25994,0.25994 -0.38991,0.57639 -0.38991,0.94934v13.62982c0,0.36165 0.12997,0.67245 0.38991,0.93239c0.25994,0.25994 0.57073,0.38991 0.93239,0.38991h15.15554c0.46337,0 0.86458,0.16387 1.20363,0.49162c0.32775,0.33905 0.49162,0.74026 0.49162,1.20363c0,0.47467 -0.16387,0.88153 -0.49162,1.22058c-0.33905,0.32775 -0.74026,0.49162 -1.20363,0.49162z"></path>
        <path d="M262.862,347.34714c-0.47467,0 -0.87588,-0.16953 -1.20363,-0.50858c-0.33905,-0.32775 -0.50858,-0.72896 -0.50858,-1.20363v-1.50877c0,-0.47467 0.16953,-0.87588 0.50858,-1.20363c0.32775,-0.32775 0.72896,-0.49162 1.20363,-0.49162c0.46337,0 0.86458,0.16387 1.20363,0.49162c0.32775,0.32775 0.49162,0.72896 0.49162,1.20363v1.50877c0,0.47467 -0.16387,0.87588 -0.49162,1.20363c-0.33905,0.33905 -0.74026,0.50858 -1.20363,0.50858zM256.793,336.73486c-0.36165,0 -0.67245,0.12997 -0.93239,0.38991c-0.25994,0.25994 -0.38991,0.57639 -0.38991,0.94934v13.62982c0,0.36165 0.12997,0.67245 0.38991,0.93239c0.25994,0.25994 0.57073,0.38991 0.93239,0.38991h12.12105c0.36165,0 0.67245,-0.12997 0.93239,-0.38991c0.25994,-0.25994 0.38991,-0.57073 0.38991,-0.93239v-13.62982c0,-0.37296 -0.12997,-0.6894 -0.38991,-0.94934c-0.25994,-0.25994 -0.57073,-0.38991 -0.93239,-0.38991zM256.793,356.43368c-1.29969,0 -2.41291,-0.46337 -3.33964,-1.39011c-0.92674,-0.92674 -1.39011,-2.03995 -1.39011,-3.33964v-13.62982c0,-1.31099 0.46337,-2.42986 1.39011,-3.3566c0.92674,-0.92674 2.03995,-1.39011 3.33964,-1.39011h12.12105c1.29969,0 2.41291,0.46337 3.33964,1.39011c0.92674,0.92674 1.39011,2.0456 1.39011,3.3566v13.62982c0,1.29969 -0.46337,2.41291 -1.39011,3.33964c-0.92674,0.92674 -2.03995,1.39011 -3.33964,1.39011z"></path>
        <path d="M278.0684,356.43368c-0.47467,0 -0.88153,-0.16387 -1.22058,-0.49162c-0.32775,-0.33905 -0.49162,-0.74591 -0.49162,-1.22058c0,-0.46337 0.16387,-0.86458 0.49162,-1.20363c0.33905,-0.32775 0.74591,-0.49162 1.22058,-0.49162h12.10409c1.20928,0 2.23773,-0.42381 3.08536,-1.27144c0.84763,-0.85893 1.27144,-1.88738 1.27144,-3.08536v-7.57777c0,-1.19798 -0.42381,-2.22078 -1.27144,-3.0684c-0.84763,-0.85893 -1.87608,-1.28839 -3.08536,-1.28839h-12.10409c-0.47467,0 -0.88153,-0.16387 -1.22058,-0.49162c-0.32775,-0.32775 -0.49162,-0.72896 -0.49162,-1.20363c0,-0.47467 0.16387,-0.87588 0.49162,-1.20363c0.33905,-0.33905 0.74591,-0.50858 1.22058,-0.50858h12.10409c2.14732,0 3.97819,0.76286 5.49261,2.28859c1.51442,1.51442 2.27164,3.33964 2.27164,5.47566v7.57777c0,2.13602 -0.75721,3.96689 -2.27164,5.49261c-1.51442,1.51442 -3.3453,2.27164 -5.49261,2.27164z"></path>
        <path d="M302.36135,353.02623c-0.47467,0 -0.88153,0.16387 -1.22058,0.49162c-0.32775,0.33905 -0.49162,0.74026 -0.49162,1.20363c0,0.47467 0.16387,0.88153 0.49162,1.22058c0.33905,0.32775 0.74591,0.49162 1.22058,0.49162h18.17309c0.46337,0 0.86458,-0.16387 1.20363,-0.49162c0.32775,-0.33905 0.49162,-0.74591 0.49162,-1.22058c0,-0.46337 -0.16387,-0.86458 -0.49162,-1.20363c-0.33905,-0.32775 -0.74026,-0.49162 -1.20363,-0.49162zM320.53444,336.73486c0.46337,0 0.86458,-0.16387 1.20363,-0.49162c0.32775,-0.32775 0.49162,-0.72896 0.49162,-1.20363c0,-0.47467 -0.16387,-0.87588 -0.49162,-1.20363c-0.33905,-0.33905 -0.74026,-0.50858 -1.20363,-0.50858h-18.17309c-0.47467,0 -0.88153,0.16953 -1.22058,0.50858c-0.32775,0.32775 -0.49162,0.72896 -0.49162,1.20363c0,0.47467 0.16387,0.87588 0.49162,1.20363c0.33905,0.32775 0.74591,0.49162 1.22058,0.49162zM302.36135,343.17682c-0.47467,0 -0.88153,0.16953 -1.22058,0.50858c-0.32775,0.32775 -0.49162,0.72896 -0.49162,1.20363c0,0.46337 0.16387,0.86458 0.49162,1.20363c0.33905,0.32775 0.74591,0.49162 1.22058,0.49162h18.17309c0.46337,0 0.86458,-0.16387 1.20363,-0.49162c0.32775,-0.33905 0.49162,-0.74026 0.49162,-1.20363c0,-0.47467 -0.16387,-0.87588 -0.49162,-1.20363c-0.33905,-0.33905 -0.74026,-0.50858 -1.20363,-0.50858z"></path>
        <path d="M124.23593,287.44173h301.52815v2.62876h-301.52815z"></path>
        <path d="M425.76407,364h-301.52815v-2.62876h301.52815z"></path>
    </g>
</svg>
