<svg
    xmlns="http://www.w3.org/2000/svg"
    version="1.1"
    width="329px"
    height="441px"
    viewBox="0 0 329 441"
>
	<defs>
		<linearGradient id="bgGradient" x1="0%" y1="0%" x2="100%" y2="0%">
			<stop offset="0%" stop-color="#533389" />
			<stop offset="100%" stop-color="#0a9ed8" />
		</linearGradient>
	</defs>
    <g
        fill="url(#bgGradient)"
        fill-rule="evenodd"
        transform="translate(-327,-210) scale(1.8)"
    >
        <path d="M217.52512,282.93547c-0.54286,0 -1.00816,-0.18741 -1.39592,-0.56224c-0.37483,-0.38775 -0.56224,-0.85306 -0.56224,-1.39592v-22.50914c0,-0.54286 0.18741,-1.0017 0.56224,-1.37653c0.38775,-0.38775 0.85306,-0.58163 1.39592,-0.58163c0.52993,0 0.98877,0.19388 1.37653,0.58163c0.37483,0.37483 0.56224,0.83367 0.56224,1.37653v20.57037h18.84486c0.52993,0 0.98877,0.18741 1.37653,0.56224c0.37483,0.38775 0.56224,0.8466 0.56224,1.37653c0,0.54286 -0.18741,1.00816 -0.56224,1.39592c-0.38775,0.37483 -0.8466,0.56224 -1.37653,0.56224z"></path>
        <path d="M245.30771,256.51001c-0.54286,0 -1.00816,0.19388 -1.39592,0.58163c-0.37483,0.37483 -0.56224,0.83367 -0.56224,1.37653v22.50914c0,0.54286 0.18741,1.00816 0.56224,1.39592c0.38775,0.37483 0.85306,0.56224 1.39592,0.56224h20.78363c0.52993,0 0.98877,-0.18741 1.37653,-0.56224c0.37483,-0.38775 0.56224,-0.85306 0.56224,-1.39592c0,-0.52993 -0.18741,-0.98877 -0.56224,-1.37653c-0.38775,-0.37483 -0.8466,-0.56224 -1.37653,-0.56224h-18.84486v-7.36733h18.84486c0.52993,0 0.98877,-0.18741 1.37653,-0.56224c0.37483,-0.38775 0.56224,-0.8466 0.56224,-1.37653c0,-0.54286 -0.18741,-1.0017 -0.56224,-1.37653c-0.38775,-0.38775 -0.8466,-0.58163 -1.37653,-0.58163h-18.84486v-7.36733h32.04789v20.57037c0,0.54286 0.18741,1.00816 0.56224,1.39592c0.38775,0.37483 0.8466,0.56224 1.37653,0.56224c0.54286,0 1.00816,-0.18741 1.39592,-0.56224c0.37483,-0.38775 0.56224,-0.85306 0.56224,-1.39592v-20.57037h14.94793c0.52993,0 0.98877,-0.18741 1.37653,-0.56224c0.37483,-0.37483 0.56224,-0.83367 0.56224,-1.37653c0,-0.54286 -0.18741,-1.0017 -0.56224,-1.37653c-0.38775,-0.38775 -0.8466,-0.58163 -1.37653,-0.58163z"></path>
        <path d="M304.90555,256.58756c-0.47823,0 -0.88537,-0.16803 -1.22143,-0.50408c-0.33605,-0.33605 -0.50408,-0.7432 -0.50408,-1.22143v-3.4704c0,-0.47823 0.16803,-0.88537 0.50408,-1.22143c0.33605,-0.33605 0.7432,-0.50408 1.22143,-0.50408c0.47823,0 0.89183,0.16803 1.24081,0.50408c0.33605,0.33605 0.50408,0.7432 0.50408,1.22143v3.4704c0,0.47823 -0.16803,0.88537 -0.50408,1.22143c-0.34898,0.33605 -0.76258,0.50408 -1.24081,0.50408z"></path>
        <path d="M311.71064,282.93547c-0.54286,0 -1.00816,-0.18741 -1.39592,-0.56224c-0.37483,-0.38775 -0.56224,-0.85306 -0.56224,-1.39592c0,-0.52993 0.18741,-0.98877 0.56224,-1.37653c0.38775,-0.37483 0.85306,-0.56224 1.39592,-0.56224h15.14181c1.02109,0 1.88707,-0.3619 2.59795,-1.08571c0.72381,-0.71088 1.08571,-1.57687 1.08571,-2.59795c0,-1.00816 -0.3619,-1.87415 -1.08571,-2.59795c-0.71088,-0.72381 -1.57687,-1.08571 -2.59795,-1.08571h-1.29898c-0.52993,0 -0.98877,-0.18741 -1.37653,-0.56224c-0.37483,-0.38775 -0.56224,-0.8466 -0.56224,-1.37653c0,-0.54286 0.18741,-1.0017 0.56224,-1.37653c0.38775,-0.38775 0.8466,-0.58163 1.37653,-0.58163h1.29898c2.09387,0 3.88401,0.7432 5.3704,2.22959c1.47347,1.47347 2.2102,3.25714 2.2102,5.35101c0,2.09387 -0.73673,3.87754 -2.2102,5.35101c-1.48639,1.48639 -3.27652,2.22959 -5.3704,2.22959zM317.33308,271.6712c-2.09387,0 -3.87754,-0.73673 -5.35101,-2.2102c-1.48639,-1.48639 -2.22959,-3.27652 -2.22959,-5.3704c0,-2.08095 0.7432,-3.86462 2.22959,-5.35101c1.47347,-1.48639 3.25714,-2.22959 5.35101,-2.22959h15.16119c0.52993,0 0.98877,0.19388 1.37653,0.58163c0.37483,0.37483 0.56224,0.83367 0.56224,1.37653c0,0.54286 -0.18741,1.0017 -0.56224,1.37653c-0.38775,0.37483 -0.8466,0.56224 -1.37653,0.56224h-15.16119c-1.02109,0 -1.88707,0.3619 -2.59795,1.08571c-0.72381,0.72381 -1.08571,1.58979 -1.08571,2.59795c0,1.02109 0.3619,1.89353 1.08571,2.61734c0.71088,0.71088 1.57687,1.06632 2.59795,1.06632h1.29898c0.54286,0 1.0017,0.19388 1.37653,0.58163c0.37483,0.37483 0.56224,0.83367 0.56224,1.37653c0,0.52993 -0.18741,0.98877 -0.56224,1.37653c-0.37483,0.37483 -0.83367,0.56224 -1.37653,0.56224z"></path>
        <path d="M221.51879,326.96311c-1.63551,0 -3.03636,-0.5831 -4.20255,-1.74929c-1.16619,-1.16619 -1.74929,-2.56704 -1.74929,-4.20255v-17.15153c0,-1.64973 0.5831,-3.05769 1.74929,-4.22388c1.16619,-1.16619 2.56704,-1.74929 4.20255,-1.74929h19.07148c0.5831,0 1.08797,0.21333 1.51463,0.63998c0.41243,0.41243 0.61865,0.91731 0.61865,1.51463c0,0.59732 -0.20622,1.10219 -0.61865,1.51463c-0.42666,0.41243 -0.93153,0.61865 -1.51463,0.61865h-19.07148c-0.4551,0 -0.8462,0.16355 -1.1733,0.49065c-0.3271,0.3271 -0.49065,0.72531 -0.49065,1.19463v17.15153c0,0.4551 0.16355,0.8462 0.49065,1.1733c0.3271,0.3271 0.7182,0.49065 1.1733,0.49065h19.07148c0.5831,0 1.08797,0.20622 1.51463,0.61865c0.41243,0.42666 0.61865,0.93153 0.61865,1.51463c0,0.59732 -0.20622,1.1093 -0.61865,1.53596c-0.42666,0.41243 -0.93153,0.61865 -1.51463,0.61865z"></path>
        <path d="M259.72575,315.52876c-0.59732,0 -1.10219,-0.21333 -1.51463,-0.63998c-0.42666,-0.41243 -0.63998,-0.91731 -0.63998,-1.51463v-1.89861c0,-0.59732 0.21333,-1.10219 0.63998,-1.51463c0.41243,-0.41243 0.91731,-0.61865 1.51463,-0.61865c0.5831,0 1.08797,0.20622 1.51463,0.61865c0.41243,0.41243 0.61865,0.91731 0.61865,1.51463v1.89861c0,0.59732 -0.20622,1.10219 -0.61865,1.51463c-0.42666,0.42666 -0.93153,0.63998 -1.51463,0.63998zM252.08863,302.17446c-0.4551,0 -0.8462,0.16355 -1.1733,0.49065c-0.3271,0.3271 -0.49065,0.72531 -0.49065,1.19463v17.15153c0,0.4551 0.16355,0.8462 0.49065,1.1733c0.3271,0.3271 0.7182,0.49065 1.1733,0.49065h15.25292c0.4551,0 0.8462,-0.16355 1.1733,-0.49065c0.3271,-0.3271 0.49065,-0.7182 0.49065,-1.1733v-17.15153c0,-0.46932 -0.16355,-0.86753 -0.49065,-1.19463c-0.3271,-0.3271 -0.7182,-0.49065 -1.1733,-0.49065zM252.08863,326.96311c-1.63551,0 -3.03636,-0.5831 -4.20255,-1.74929c-1.16619,-1.16619 -1.74929,-2.56704 -1.74929,-4.20255v-17.15153c0,-1.64973 0.5831,-3.05769 1.74929,-4.22388c1.16619,-1.16619 2.56704,-1.74929 4.20255,-1.74929h15.25292c1.63551,0 3.03636,0.5831 4.20255,1.74929c1.16619,1.16619 1.74929,2.57415 1.74929,4.22388v17.15153c0,1.63551 -0.5831,3.03636 -1.74929,4.20255c-1.16619,1.16619 -2.56704,1.74929 -4.20255,1.74929z"></path>
        <path d="M278.86123,326.96311c-0.59732,0 -1.1093,-0.20622 -1.53596,-0.61865c-0.41243,-0.42666 -0.61865,-0.93864 -0.61865,-1.53596c0,-0.5831 0.20622,-1.08797 0.61865,-1.51463c0.42666,-0.41243 0.93864,-0.61865 1.53596,-0.61865h15.23158c1.52174,0 2.81592,-0.53332 3.88256,-1.59996c1.06664,-1.08086 1.59996,-2.37505 1.59996,-3.88256v-9.53574c0,-1.50751 -0.53332,-2.79459 -1.59996,-3.86123c-1.06664,-1.08086 -2.36082,-1.62129 -3.88256,-1.62129h-15.23158c-0.59732,0 -1.1093,-0.20622 -1.53596,-0.61865c-0.41243,-0.41243 -0.61865,-0.91731 -0.61865,-1.51463c0,-0.59732 0.20622,-1.10219 0.61865,-1.51463c0.42666,-0.42666 0.93864,-0.63998 1.53596,-0.63998h15.23158c2.70215,0 5.00609,0.95997 6.91181,2.87992c1.90573,1.90573 2.85859,4.20255 2.85859,6.89048v9.53574c0,2.68793 -0.95286,4.99186 -2.85859,6.91181c-1.90573,1.90573 -4.20966,2.85859 -6.91181,2.85859z"></path>
        <path d="M309.43106,322.67523c-0.59732,0 -1.1093,0.20622 -1.53596,0.61865c-0.41243,0.42666 -0.61865,0.93153 -0.61865,1.51463c0,0.59732 0.20622,1.1093 0.61865,1.53596c0.42666,0.41243 0.93864,0.61865 1.53596,0.61865h22.86871c0.5831,0 1.08797,-0.20622 1.51463,-0.61865c0.41243,-0.42666 0.61865,-0.93864 0.61865,-1.53596c0,-0.5831 -0.20622,-1.08797 -0.61865,-1.51463c-0.42666,-0.41243 -0.93153,-0.61865 -1.51463,-0.61865zM332.29977,302.17446c0.5831,0 1.08797,-0.20622 1.51463,-0.61865c0.41243,-0.41243 0.61865,-0.91731 0.61865,-1.51463c0,-0.59732 -0.20622,-1.10219 -0.61865,-1.51463c-0.42666,-0.42666 -0.93153,-0.63998 -1.51463,-0.63998h-22.86871c-0.59732,0 -1.1093,0.21333 -1.53596,0.63998c-0.41243,0.41243 -0.61865,0.91731 -0.61865,1.51463c0,0.59732 0.20622,1.10219 0.61865,1.51463c0.42666,0.41243 0.93864,0.61865 1.53596,0.61865zM309.43106,310.2809c-0.59732,0 -1.1093,0.21333 -1.53596,0.63998c-0.41243,0.41243 -0.61865,0.91731 -0.61865,1.51463c0,0.5831 0.20622,1.08797 0.61865,1.51463c0.42666,0.41243 0.93864,0.61865 1.53596,0.61865h22.86871c0.5831,0 1.08797,-0.20622 1.51463,-0.61865c0.41243,-0.42666 0.61865,-0.93153 0.61865,-1.51463c0,-0.59732 -0.20622,-1.10219 -0.61865,-1.51463c-0.42666,-0.42666 -0.93153,-0.63998 -1.51463,-0.63998z"></path>
        <path d="M235.73305,187.22738l5.73689,-5.73689l5.52974,2.63459l-0.63637,1.35229l13.28422,6.52279l2.54548,1.27274l12.96604,6.3637v-8.27281l-12.96604,-6.04551v3.81822l8.19326,3.73867l-0.47728,0.95455l-18.85245,-8.90918l-8.80209,-4.21456l7.64201,-7.64201l25.26258,11.85657v-25.45479h-11.66437l11.50528,-11.50528l39.26691,39.26691l-16.62516,16.62516h-13.97121l9.37264,4.59856l-0.78982,0.78982l-10.96921,-5.38838h-6.12506v-3.02276l-12.96604,-6.3637v19.22126zM274.99995,226.49429l-11.50528,-11.50528h23.01055zM262.19301,172.59088l-10.75783,-1.06563l10.75783,-10.75783zM319.18345,187.49427l-0.01401,0.19029c-0.00129,0.01715 -0.00298,0.03423 -0.00507,0.05123l-0.02344,0.18932c-0.00202,0.01667 -0.00447,0.03331 -0.00737,0.0499l-0.03262,0.18799c-0.0029,0.01667 -0.0062,0.03331 -0.00991,0.0499l-0.0418,0.18618c-0.0037,0.01651 -0.00781,0.03294 -0.01232,0.0493l-0.05086,0.18388c-0.00451,0.01627 -0.00943,0.03242 -0.01474,0.04845l-0.0598,0.18123c-0.0054,0.01635 -0.0112,0.03258 -0.0174,0.04869l-0.06874,0.17797c-0.00604,0.01563 -0.01248,0.03113 -0.01933,0.04652l-0.07733,0.17446c-0.00685,0.01547 -0.0141,0.03077 -0.02175,0.04591l-0.08578,0.17048c-0.00757,0.01514 -0.01555,0.03005 -0.02392,0.0447l-0.09388,0.166c-0.00846,0.0149 -0.01728,0.02956 -0.02646,0.04398l-0.10209,0.16117c-0.00902,0.01426 -0.01837,0.02831 -0.02803,0.04217l-0.10982,0.15598c-0.00983,0.01393 -0.02001,0.02763 -0.03057,0.04108l-0.11743,0.15042c-0.01031,0.01321 -0.02094,0.02618 -0.0319,0.0389l-0.12457,0.1445c-0.01111,0.01297 -0.02255,0.02561 -0.03431,0.03794l-0.13157,0.13822c-0.00588,0.00612 -0.01184,0.0122 -0.01788,0.01824l-0.8183,0.8183l-0.30506,0.30519l-0.30519,0.30506l-12.81617,12.81617l-2.74644,2.74632l-1.22051,1.22063l-0.61038,0.61025l-0.30506,0.30519l-0.61038,0.61025l-2.74632,2.74632l-1.52569,1.52582l-0.30519,0.30506l-0.61025,0.61038l-1.83088,1.83088l-0.30519,0.30506l-0.30519,0.30519l-0.30506,0.30519l-0.61038,0.61025l-0.30506,0.30519l-2.74632,2.74632l-2.44126,2.44114l-3.05139,3.05151l-0.91556,0.91544l-1.52569,1.52569c-0.00604,0.00604 -0.01212,0.012 -0.01824,0.01788l-0.13822,0.13157c-0.01224,0.0116 -0.02477,0.02291 -0.03758,0.03395l-0.1445,0.12469c-0.01281,0.01111 -0.0259,0.02187 -0.03926,0.03226l-0.15042,0.11743c-0.01345,0.01055 -0.02714,0.02074 -0.04108,0.03057l-0.15598,0.10982c-0.01385,0.00966 -0.02791,0.01901 -0.04217,0.02803l-0.16117,0.10209c-0.01442,0.00918 -0.02904,0.01796 -0.04386,0.02634l-0.166,0.094c-0.01474,0.00838 -0.02968,0.01639 -0.04482,0.02404l-0.17048,0.08578c-0.01514,0.00757 -0.03045,0.01478 -0.04591,0.02163l-0.17446,0.07733c-0.01538,0.00685 -0.03089,0.01329 -0.04652,0.01933l-0.17797,0.06874c-0.01611,0.0062 -0.03234,0.012 -0.04869,0.0174l-0.18123,0.0598c-0.01603,0.00532 -0.03222,0.01023 -0.04857,0.01474l-0.18388,0.05086c-0.01627,0.00451 -0.03266,0.00862 -0.04917,0.01232l-0.18618,0.0418c-0.01659,0.0037 -0.03322,0.00701 -0.0499,0.00991l-0.18799,0.03262c-0.01659,0.0029 -0.03322,0.00536 -0.0499,0.00737l-0.18932,0.02344c-0.017,0.00209 -0.03407,0.00379 -0.05123,0.00507l-0.19029,0.01401c-0.01683,0.00121 -0.03367,0.00205 -0.0505,0.00254l-0.19077,0.00471c-0.01708,0.0004 -0.03415,0.0004 -0.05123,0l-0.19077,-0.00471c-0.01683,-0.00048 -0.03367,-0.00133 -0.0505,-0.00254l-0.19029,-0.01401c-0.01715,-0.00129 -0.03423,-0.00298 -0.05123,-0.00507l-0.18932,-0.02344c-0.01667,-0.00202 -0.03331,-0.00447 -0.0499,-0.00737l-0.18799,-0.03262c-0.01667,-0.0029 -0.03331,-0.0062 -0.0499,-0.00991l-0.18618,-0.0418c-0.01651,-0.0037 -0.0329,-0.00781 -0.04917,-0.01232l-0.18388,-0.05086c-0.01635,-0.00451 -0.03254,-0.00943 -0.04857,-0.01474l-0.18123,-0.0598c-0.01635,-0.0054 -0.03258,-0.0112 -0.04869,-0.0174l-0.17797,-0.06874c-0.01563,-0.00604 -0.03113,-0.01248 -0.04652,-0.01933l-0.17446,-0.07733c-0.01555,-0.00685 -0.03093,-0.01414 -0.04615,-0.02187l-0.17035,-0.08578c-0.01506,-0.00757 -0.02992,-0.01551 -0.04458,-0.0238l-0.166,-0.094c-0.01474,-0.00829 -0.02928,-0.017 -0.04362,-0.02609l-0.16129,-0.10209c-0.01434,-0.0091 -0.02847,-0.01852 -0.04241,-0.02827l-0.15598,-0.10982c-0.01393,-0.00983 -0.02763,-0.02001 -0.04108,-0.03057l-0.15042,-0.11743c-0.01337,-0.01039 -0.02646,-0.02114 -0.03926,-0.03226l-0.1445,-0.12469c-0.01281,-0.01103 -0.02533,-0.02235 -0.03758,-0.03395l-0.13822,-0.13157c-0.00612,-0.00588 -0.0122,-0.01184 -0.01824,-0.01788l-6.00576,-6.00576l-0.30519,-0.30506l-3.05141,-3.05151l-0.30515,-0.30519l-2.44119,-2.44114l-0.61029,-0.61025l-0.30515,-0.30519l-1.83088,-1.83088l-0.30515,-0.30519l-0.30515,-0.30506l-1.83088,-1.83088l-0.91544,-0.91556l-0.30514,-0.30506l-0.30515,-0.30519l-3.05148,-3.05151l-0.6103,-0.61025l-0.30514,-0.30519l-0.6103,-0.61025l-0.30514,-0.30519l-0.30515,-0.30506l-1.22059,-1.22063l-1.52574,-1.52569l-0.91544,-0.91544l-0.61029,-0.61038l-0.6103,-0.61025l-0.30514,-0.30519l-0.30515,-0.30506l-3.35663,-3.3567l-0.30519,-0.30506l-0.30506,-0.30519l-0.30519,-0.30519l-0.30519,-0.30506l-0.61025,-0.61038l-1.22063,-1.22051l-3.35658,-3.3567c-0.00604,-0.00604 -0.012,-0.01212 -0.01788,-0.01824l-0.13157,-0.13822c-0.0116,-0.01224 -0.02291,-0.02477 -0.03395,-0.03758l-0.12469,-0.1445c-0.0112,-0.01297 -0.02207,-0.02618 -0.03262,-0.03963l-0.11731,-0.15042c-0.01023,-0.01321 -0.02018,-0.02666 -0.02984,-0.04036l-0.10994,-0.15598c-0.00983,-0.01393 -0.01929,-0.02811 -0.02839,-0.04253l-0.10209,-0.16117c-0.00918,-0.01442 -0.01796,-0.02904 -0.02634,-0.04386l-0.094,-0.166c-0.00838,-0.01474 -0.01639,-0.02968 -0.02404,-0.04482l-0.08578,-0.17048c-0.00757,-0.01514 -0.01478,-0.03045 -0.02163,-0.04591l-0.07733,-0.17446c-0.00692,-0.01555 -0.01345,-0.03125 -0.01957,-0.04712l-0.06862,-0.17797c-0.00604,-0.01571 -0.01168,-0.03153 -0.01692,-0.04748l-0.05993,-0.18123c-0.0054,-0.01627 -0.01039,-0.03262 -0.01498,-0.04905l-0.05086,-0.18388c-0.00451,-0.01635 -0.00862,-0.03278 -0.01232,-0.0493l-0.0418,-0.18618c-0.0037,-0.01659 -0.00701,-0.03322 -0.00991,-0.0499l-0.03262,-0.18799c-0.0029,-0.01675 -0.0054,-0.03359 -0.00749,-0.0505l-0.02332,-0.18932c-0.00202,-0.01659 -0.00366,-0.03322 -0.00495,-0.0499l-0.01414,-0.19029c-0.00129,-0.01732 -0.00213,-0.03463 -0.00254,-0.05195l-0.00459,-0.19077c-0.0004,-0.01659 -0.0004,-0.03318 0,-0.04978l0.00459,-0.19077c0.0004,-0.01732 0.00125,-0.03463 0.00254,-0.05195l0.01414,-0.19029c0.00129,-0.01667 0.00294,-0.03331 0.00495,-0.0499l0.02332,-0.18932c0.00209,-0.01692 0.00459,-0.03375 0.00749,-0.0505l0.03262,-0.18799c0.0029,-0.01667 0.0062,-0.03331 0.00991,-0.0499l0.0418,-0.18618c0.0037,-0.01651 0.00781,-0.03294 0.01232,-0.0493l0.05086,-0.18388c0.00459,-0.01643 0.00959,-0.03278 0.01498,-0.04905l0.05993,-0.18123c0.00524,-0.01595 0.01088,-0.03177 0.01692,-0.04748l0.06862,-0.17797c0.00612,-0.01587 0.01265,-0.03157 0.01957,-0.04712l0.07733,-0.17446c0.00685,-0.01547 0.01406,-0.03076 0.02163,-0.04589l0.08578,-0.17048c0.00765,-0.01514 0.01567,-0.03007 0.02404,-0.04481l0.094,-0.166c0.00838,-0.01487 0.01715,-0.02952 0.02634,-0.04397l0.10209,-0.16116c0.0091,-0.01438 0.01856,-0.02853 0.02839,-0.04245l0.10994,-0.156c0.00959,-0.01369 0.01953,-0.02713 0.02984,-0.04033l0.11731,-0.15042c0.01055,-0.01353 0.02142,-0.02679 0.03262,-0.03977l0.12469,-0.14447c0.01103,-0.01278 0.02239,-0.02529 0.03407,-0.03753l0.13157,-0.13819c0.0058,-0.00614 0.01172,-0.0122 0.01776,-0.01819l1.42856,-1.42853l3.05139,-3.05147l0.61038,-0.6103l0.91544,-0.91544l0.30506,-0.30515l0.61038,-0.61029l0.30506,-0.30515l0.61038,-0.6103l2.136,-2.13603l0.91545,-0.91544l0.30514,-0.30515l0.30515,-0.30515l2.74632,-2.74633l0.30515,-0.30515l0.30515,-0.30514l0.30515,-0.30515l1.22058,-1.22059l0.30515,-0.30515l2.74633,-2.74632l0.30514,-0.30515l2.13603,-2.13603l1.52574,-1.52573l0.30514,-0.30519l0.30515,-0.30506l3.05147,-3.05151l0.91544,-0.91544l0.30515,-0.30519l2.13603,-2.13607l0.30515,-0.30506l3.0515,-3.05151l5.49264,-5.49264c0.00604,-0.00604 0.01212,-0.012 0.01824,-0.01788l0.13822,-0.13157c0.01224,-0.0116 0.02477,-0.02291 0.03758,-0.03395l0.1445,-0.12469c0.01281,-0.01111 0.0259,-0.02187 0.03926,-0.03226l0.15042,-0.11743c0.01345,-0.01055 0.02714,-0.02074 0.04108,-0.03057l0.15598,-0.10982c0.01393,-0.00974 0.02807,-0.01917 0.04241,-0.02827l0.16129,-0.10209c0.01434,-0.0091 0.02887,-0.0178 0.04362,-0.02609l0.166,-0.094c0.01466,-0.00829 0.02952,-0.01623 0.04458,-0.0238l0.17035,-0.08578c0.01522,-0.00773 0.03061,-0.01502 0.04615,-0.02187l0.17446,-0.07733c0.01538,-0.00685 0.03089,-0.01329 0.04652,-0.01933l0.17797,-0.06874c0.01611,-0.0062 0.03234,-0.012 0.04869,-0.0174l0.18123,-0.0598c0.01603,-0.00532 0.03222,-0.01023 0.04857,-0.01474l0.18388,-0.05086c0.01627,-0.00451 0.03266,-0.00862 0.04917,-0.01232l0.18618,-0.0418c0.01659,-0.0037 0.03322,-0.00701 0.0499,-0.00991l0.18799,-0.03262c0.01659,-0.0029 0.03322,-0.00536 0.0499,-0.00737l0.18932,-0.02344c0.017,-0.00209 0.03407,-0.00379 0.05123,-0.00507l0.19029,-0.01401c0.01683,-0.00121 0.03367,-0.00205 0.0505,-0.00254l0.19077,-0.00471c0.01708,-0.0004 0.03415,-0.0004 0.05123,0l0.19077,0.00471c0.01683,0.00048 0.03367,0.00133 0.0505,0.00254l0.19029,0.01401c0.01715,0.00129 0.03423,0.00298 0.05123,0.00507l0.18932,0.02344c0.01667,0.00202 0.03331,0.00447 0.0499,0.00737l0.18799,0.03262c0.01667,0.0029 0.03331,0.0062 0.0499,0.00991l0.18618,0.0418c0.01651,0.0037 0.0329,0.00781 0.04917,0.01232l0.18388,0.05086c0.01635,0.00451 0.03254,0.00943 0.04857,0.01474l0.18123,0.0598c0.01635,0.0054 0.03258,0.0112 0.04869,0.0174l0.17797,0.06874c0.01563,0.00604 0.03113,0.01248 0.04652,0.01933l0.17446,0.07733c0.01547,0.00685 0.03077,0.01406 0.04591,0.02163l0.17048,0.08578c0.01514,0.00765 0.03009,0.01567 0.04482,0.02404l0.166,0.094c0.01482,0.00838 0.02944,0.01715 0.04386,0.02634l0.16117,0.10209c0.01426,0.00902 0.02831,0.01837 0.04217,0.02803l0.15598,0.10982c0.01393,0.00983 0.02763,0.02001 0.04108,0.03057l0.15042,0.11743c0.01337,0.01039 0.02646,0.02114 0.03926,0.03226l0.1445,0.12469c0.01281,0.01103 0.02533,0.02235 0.03758,0.03395l0.13822,0.13157c0.00612,0.00588 0.0122,0.01184 0.01824,0.01788l0.20805,0.20793l1.22051,1.22063l5.18758,5.18758l3.05151,3.05139l0.30506,0.30519l0.30519,0.30519l0.30519,0.30506l0.61025,0.61038l0.30519,0.30506l0.61025,0.61038l1.22063,1.22051l2.74632,2.74632l0.30506,0.30519l0.30519,0.30514l0.30519,0.30515l0.30519,0.30514l0.30506,0.30515l0.30519,0.30515l0.30519,0.30514l0.30506,0.30516l0.30519,0.30514l1.22063,1.22059l0.91544,0.91544l3.05139,3.05147l0.30519,0.30515l0.91544,0.91544l3.05151,3.05147l0.61025,0.61029l0.30519,0.30515l1.52569,1.52573l0.61038,0.6103l0.30506,0.30514l0.30519,0.30515l3.05151,3.05147l2.13595,2.13603l1.22063,1.22059l0.30519,0.30515l0.30506,0.30514l0.30519,0.30514c0.00604,0.006 0.01196,0.01207 0.01776,0.01822l0.13157,0.13819c0.01176,0.01235 0.0232,0.02498 0.03431,0.03789l0.12457,0.14447c0.01103,0.01274 0.02171,0.02573 0.03202,0.03899l0.11743,0.15042c0.01055,0.01347 0.02074,0.0272 0.03057,0.04119l0.10982,0.156c0.00966,0.01377 0.01901,0.02776 0.02803,0.04199l0.10209,0.16116c0.00918,0.01445 0.018,0.02912 0.02646,0.044l0.09388,0.166c0.00838,0.01473 0.01635,0.02966 0.02392,0.04479l0.08578,0.17048c0.00765,0.01513 0.0149,0.03042 0.02175,0.04589l0.07733,0.17446c0.00685,0.01538 0.01329,0.03089 0.01933,0.04652l0.06874,0.17797c0.0062,0.01611 0.012,0.03234 0.0174,0.04869l0.0598,0.18123c0.00532,0.01603 0.01023,0.03218 0.01474,0.04845l0.05086,0.18388c0.00451,0.01635 0.00862,0.03278 0.01232,0.0493l0.0418,0.18618c0.0037,0.01659 0.00701,0.03322 0.00991,0.0499l0.03262,0.18799c0.0029,0.01659 0.00536,0.03322 0.00737,0.0499l0.02344,0.18932c0.00209,0.017 0.00379,0.03407 0.00507,0.05123l0.01401,0.19029c0.00121,0.01683 0.00205,0.03367 0.00254,0.0505l0.00471,0.19077c0.0004,0.01708 0.0004,0.03415 0,0.05123l-0.00471,0.19077c-0.00048,0.01683 -0.00133,0.03367 -0.00254,0.0505zM317.11395,187.08747l-0.01027,-0.1393l-0.01715,-0.1387l-0.02404,-0.13822l-0.03069,-0.13652l-0.03733,-0.13507l-0.04374,-0.13254l-0.05038,-0.13036l-0.05679,-0.12819l-0.06295,-0.12505l-0.06887,-0.12166l-0.07478,-0.11816l-0.08059,-0.1143l-0.08614,-0.11031l-0.09134,-0.10608l-0.10511,-0.11043l-0.29625,-0.29615l-0.30519,-0.30516l-0.30506,-0.30514l-1.22063,-1.22059l-2.13607,-2.13602l-3.05139,-3.05149l-0.30519,-0.30514l-0.30519,-0.30515l-0.30506,-0.30515l-0.30519,-0.30514l-1.52569,-1.52574l-0.30519,-0.30514l-0.61025,-0.6103l-3.05151,-3.05148l-0.91544,-0.91544l-0.30519,-0.30514l-3.05151,-3.05149l-0.91544,-0.91543l-1.22051,-1.22059l-0.30519,-0.30515l-0.30519,-0.30514l-0.30506,-0.30516l-0.30519,-0.30514l-0.30519,-0.30515l-0.30506,-0.30515l-0.30519,-0.30514l-0.30519,-0.30515l-0.30506,-0.30515l-2.74632,-2.74626l-2.44126,-2.44126l-0.30519,-0.30506l-0.30506,-0.30519l-8.84934,-8.84934l-1.22063,-1.22051l-0.19887,-0.19899l-0.11067,-0.10535l-0.10608,-0.09146l-0.11019,-0.08602l-0.1143,-0.08059l-0.11816,-0.07478l-0.12154,-0.06887l-0.12517,-0.06295l-0.12819,-0.05679l-0.13036,-0.05038l-0.13266,-0.04374l-0.13496,-0.03733l-0.13652,-0.03069l-0.1381,-0.02392l-0.13882,-0.01728l-0.1393,-0.01027l-0.13991,-0.00339l-0.13991,0.00339l-0.1393,0.01027l-0.13882,0.01728l-0.1381,0.02392l-0.13652,0.03069l-0.13496,0.03733l-0.13266,0.04374l-0.13036,0.05038l-0.12807,0.05679l-0.12493,0.06283l-0.12191,0.06911l-0.11828,0.07478l-0.11417,0.08046l-0.11019,0.08602l-0.10608,0.09146l-0.11067,0.10535l-5.48358,5.48358l-3.05147,3.05151l-0.30514,0.30519l-2.13603,2.13595l-0.30515,0.30519l-0.91544,0.91544l-3.05147,3.05149l-0.30515,0.30515l-0.30515,0.30514l-1.52573,1.52574l-2.13604,2.13603l-0.6103,0.6103l-1.52573,1.52573l-2.74633,2.74633l-0.30514,0.30515l-0.30515,0.30514l-2.74632,2.74633l-0.30515,0.30515l-0.30515,0.30514l-0.91544,0.91545l-3.05147,3.05147l-0.61025,0.6103l-0.30519,0.30514l-0.91544,0.91544l-0.61025,0.6103l-3.05151,3.05147l-1.4195,1.41955l-0.10535,0.11067l-0.09134,0.10584l-0.08602,0.11031l-0.08083,0.11453l-0.07467,0.11792l-0.06887,0.12166l-0.06295,0.12505l-0.05666,0.12795l-0.05038,0.13061l-0.04398,0.1329l-0.03721,0.13471l-0.03069,0.13652l-0.02392,0.13785l-0.01715,0.13906l-0.01027,0.1393l-0.00339,0.13991l0.00339,0.13991l0.01027,0.1393l0.01715,0.13906l0.02392,0.13785l0.03069,0.13652l0.03721,0.13471l0.04398,0.1329l0.05038,0.13061l0.05666,0.12795l0.06295,0.12505l0.06887,0.12166l0.07467,0.11792l0.08071,0.11453l0.08614,0.11043l0.09134,0.10584l0.10535,0.11067l3.34764,3.34751l1.22051,1.22063l0.30519,0.30519l0.30519,0.30506l0.30506,0.30519l0.30519,0.30519l0.30519,0.30506l0.30506,0.30519l0.30519,0.30519l3.05146,3.05139l0.30515,0.30519l0.91544,0.91544l0.6103,0.61025l0.91544,0.91544l1.52573,1.52582l1.22059,1.22051l0.6103,0.61038l0.61029,0.61025l0.30515,0.30519l0.61029,0.61025l3.05149,3.05151l0.30514,0.30519l0.30515,0.30506l0.61029,0.61038l0.30515,0.30506l1.83089,1.83088l0.30514,0.30519l0.30515,0.30519l1.83088,1.83088l0.30515,0.30506l0.6103,0.61038l2.44117,2.44114l0.30515,0.30519l3.05151,3.05139l0.30506,0.30519l5.9967,5.9967l0.11067,0.10535l0.10608,0.09146l0.11019,0.08614l0.11417,0.08034l0.1184,0.07491l0.12166,0.06887l0.12505,0.06295l0.12807,0.05679l0.13036,0.05038l0.13254,0.04374l0.13507,0.03733l0.13652,0.03069l0.1381,0.02392l0.13882,0.01728l0.13942,0.01027l0.13979,0.00339l0.13979,-0.00339l0.13942,-0.01027l0.13882,-0.01728l0.1381,-0.02392l0.13652,-0.03069l0.13507,-0.03733l0.13254,-0.04374l0.13036,-0.05038l0.12819,-0.05679l0.12517,-0.06295l0.12154,-0.06887l0.11816,-0.07478l0.1143,-0.08059l0.11019,-0.08602l0.10608,-0.09146l0.11055,-0.10535l0.29625,-0.29612l5.18746,-5.18746l2.44114,-2.44126l2.74644,-2.74632l9.15441,-9.15441l0.30519,-0.30506l0.30506,-0.30519l0.30519,-0.30519l0.30519,-0.30506l1.22051,-1.22063l2.74632,-2.74632l0.61038,-0.61025l0.30506,-0.30519l1.52582,-1.52569l0.61025,-0.61038l2.44126,-2.44114l1.22051,-1.22063l2.13607,-2.13595l3.96695,-3.96695l0.30506,-0.30519l0.30519,-0.30506l0.30519,-0.30519l0.50405,-0.50418l0.10523,-0.11043l0.09134,-0.10596l0.08627,-0.11043l0.08046,-0.11442l0.07478,-0.11804l0.06887,-0.12166l0.06295,-0.12505l0.05679,-0.12819l0.05038,-0.13036l0.04374,-0.13254l0.03733,-0.13507l0.03069,-0.13652l0.02404,-0.13822l0.01715,-0.1387l0.01027,-0.1393l0.00339,-0.13991z"></path>
        <path d="M178.53041,358.59994c0,1.49076 0.52732,2.76346 1.58196,3.8181c1.0541,1.05464 2.3268,1.58196 3.8181,1.58196h182.13906c1.4913,0 2.764,-0.52732 3.8181,-1.58196c1.05464,-1.05464 1.58196,-2.32734 1.58196,-3.8181v-247.20013c0,-1.49114 -0.52732,-2.76392 -1.58196,-3.81834c-1.0541,-1.05432 -2.3268,-1.58147 -3.8181,-1.58147h-182.13906c-1.49076,0 -2.76346,0.52718 -3.8181,1.58155c-1.05464,1.05432 -1.58196,2.32707 -1.58196,3.81826zM183.93047,362.05112c-0.95325,0 -1.76676,-0.33688 -2.44053,-1.01065c-0.67377,-0.67377 -1.01065,-1.48728 -1.01065,-2.44053v-247.20013c0,-0.95309 0.33688,-1.76657 1.01065,-2.44045c0.67377,-0.67398 1.48728,-1.01097 2.44053,-1.01097h182.13906c0.95325,0 1.76676,0.33699 2.44053,1.01097c0.67377,0.67387 1.01065,1.48736 1.01065,2.44045v247.20013c0,0.95271 -0.33688,1.76622 -1.01065,2.44053c-0.67377,0.67377 -1.48728,1.01065 -2.44053,1.01065z"></path>
    </g>
</svg>
