<svg
    xmlns="http://www.w3.org/2000/svg"
    version="1.1"
    width="317px"
    height="317px"
    viewBox="0 0 317 317"
>
	<defs>
		<linearGradient id="bgGradient" x1="0%" y1="0%" x2="100%" y2="0%">
			<stop offset="0%" stop-color="#fff" />
			<stop offset="40%" stop-color="#fff" />
			<stop offset="100%" stop-color="#fff" />
		</linearGradient>
	</defs>
    <g
        fill="url(#bgGradient)"
        fill-rule="evenodd"
        transform="translate(-254,-230) scale(1.5)"
    >
        <path d="M181.4649,258.73555l13.66546,-13.66546l13.17202,6.27568l-1.51585,3.22119l31.64342,15.53749l6.06341,3.0317l30.8855,15.15853v-19.70608l-30.8855,-14.40059v9.09512l19.5166,8.90563l-1.13689,2.27378l-44.90713,-21.22193l-20.96686,-10.03921l18.20351,-18.20351l60.17626,28.24273v-60.6341h-27.78489l27.40593,-27.40593l93.53499,93.53499l-39.60164,39.60164h-33.27986l22.32593,10.95392l-1.88138,1.88138l-26.129,-12.8353h-14.59008v-7.2003l-30.8855,-15.15853v45.78564zM274.99988,352.27054l-27.40593,-27.40593h54.81185zM244.49335,223.87095l-25.62547,-2.53837l25.62547,-25.62547zM380.24635,259.37129l-0.03338,0.45327c-0.00307,0.04086 -0.00709,0.08154 -0.01208,0.12202l-0.05583,0.45097c-0.0048,0.03972 -0.01065,0.07934 -0.01756,0.11885l-0.07771,0.44781c-0.00691,0.03972 -0.01477,0.07934 -0.0236,0.11885l-0.09958,0.44349c-0.00882,0.03933 -0.01861,0.07847 -0.02936,0.11742l-0.12116,0.43802c-0.01075,0.03876 -0.02245,0.07722 -0.03511,0.1154l-0.14245,0.43169c-0.01285,0.03895 -0.02667,0.07761 -0.04144,0.11598l-0.16375,0.42392c-0.01439,0.03722 -0.02974,0.07416 -0.04604,0.1108l-0.18419,0.41557c-0.01631,0.03684 -0.03358,0.0733 -0.0518,0.10936l-0.20433,0.40608c-0.01803,0.03607 -0.03703,0.07157 -0.05698,0.10649l-0.22361,0.39543c-0.02015,0.0355 -0.04116,0.07041 -0.06302,0.10476l-0.24318,0.38392c-0.02148,0.03396 -0.04375,0.06744 -0.06677,0.10044l-0.2616,0.37154c-0.02341,0.03319 -0.04767,0.06581 -0.07281,0.09785l-0.27973,0.3583c-0.02456,0.03146 -0.04988,0.06236 -0.07598,0.09266l-0.29672,0.3442c-0.02647,0.03088 -0.05372,0.06101 -0.08174,0.09037l-0.3134,0.32924c-0.01401,0.01458 -0.0282,0.02906 -0.04259,0.04345l-1.94922,1.94922l-0.72667,0.72697l-0.72697,0.72667l-30.52852,30.52852l-6.54211,6.54182l-2.90729,2.90757l-1.45393,1.45364l-0.72667,0.72697l-1.45393,1.45364l-6.54182,6.54182l-3.63425,3.63454l-0.72697,0.72667l-1.45364,1.45393l-4.36121,4.36121l-0.72697,0.72667l-0.72697,0.72697l-0.72667,0.72697l-1.45393,1.45364l-0.72667,0.72697l-6.54182,6.54182l-5.81515,5.81486l-7.2685,7.26879l-2.18089,2.18061l-3.63425,3.63425c-0.01439,0.01439 -0.02887,0.02859 -0.04345,0.04259l-0.32924,0.3134c-0.02916,0.02763 -0.059,0.05458 -0.08951,0.08087l-0.3442,0.297c-0.03051,0.02647 -0.06168,0.0521 -0.09353,0.07684l-0.3583,0.27973c-0.03204,0.02514 -0.06465,0.0494 -0.09785,0.07281l-0.37154,0.2616c-0.033,0.02302 -0.06649,0.04527 -0.10044,0.06677l-0.38392,0.24318c-0.03435,0.02187 -0.06917,0.04279 -0.10446,0.06274l-0.39543,0.22391c-0.03511,0.01996 -0.07071,0.03904 -0.10677,0.05727l-0.40608,0.20433c-0.03607,0.01803 -0.07253,0.03521 -0.10936,0.05152l-0.41557,0.18419c-0.03664,0.01631 -0.07358,0.03165 -0.1108,0.04604l-0.42392,0.16375c-0.03837,0.01477 -0.07703,0.02859 -0.11598,0.04144l-0.43169,0.14245c-0.03818,0.01266 -0.07675,0.02437 -0.1157,0.03511l-0.43802,0.12116c-0.03876,0.01075 -0.0778,0.02053 -0.11713,0.02936l-0.44349,0.09958c-0.03953,0.00882 -0.07914,0.01669 -0.11885,0.0236l-0.44781,0.07771c-0.03953,0.00691 -0.07914,0.01276 -0.11885,0.01756l-0.45097,0.05583c-0.04048,0.00499 -0.08116,0.00902 -0.12202,0.01208l-0.45327,0.03338c-0.0401,0.00287 -0.0802,0.00489 -0.1203,0.00604l-0.45443,0.01122c-0.04067,0.00096 -0.08135,0.00096 -0.12202,0l-0.45443,-0.01122c-0.0401,-0.00115 -0.0802,-0.00317 -0.1203,-0.00604l-0.45327,-0.03338c-0.04086,-0.00307 -0.08154,-0.00709 -0.12202,-0.01208l-0.45097,-0.05583c-0.03972,-0.0048 -0.07934,-0.01065 -0.11885,-0.01756l-0.44781,-0.07771c-0.03972,-0.00691 -0.07934,-0.01477 -0.11885,-0.0236l-0.44349,-0.09958c-0.03933,-0.00882 -0.07838,-0.01861 -0.11713,-0.02936l-0.43802,-0.12116c-0.03895,-0.01075 -0.07752,-0.02245 -0.1157,-0.03511l-0.43169,-0.14245c-0.03895,-0.01285 -0.07761,-0.02667 -0.11598,-0.04144l-0.42392,-0.16375c-0.03722,-0.01439 -0.07416,-0.02974 -0.1108,-0.04604l-0.41557,-0.18419c-0.03703,-0.01631 -0.07367,-0.03367 -0.10994,-0.0521l-0.40578,-0.20433c-0.03587,-0.01803 -0.07127,-0.03694 -0.10619,-0.0567l-0.39543,-0.22391c-0.03511,-0.01976 -0.06974,-0.04048 -0.1039,-0.06216l-0.3842,-0.24318c-0.03415,-0.02168 -0.06782,-0.04413 -0.10101,-0.06735l-0.37154,-0.2616c-0.03319,-0.02341 -0.06581,-0.04767 -0.09785,-0.07281l-0.3583,-0.27973c-0.03185,-0.02475 -0.06302,-0.05036 -0.09353,-0.07684l-0.3442,-0.297c-0.03051,-0.02628 -0.06034,-0.05324 -0.08951,-0.08087l-0.32924,-0.3134c-0.01458,-0.01401 -0.02906,-0.0282 -0.04345,-0.04259l-14.30591,-14.30591l-0.72697,-0.72667l-7.26856,-7.26879l-0.72688,-0.72697l-5.81498,-5.81486l-1.45373,-1.45364l-0.72688,-0.72697l-4.36121,-4.36121l-0.72688,-0.72697l-0.72688,-0.72667l-4.36121,-4.36121l-2.18062,-2.18089l-0.72686,-0.72667l-0.72687,-0.72697l-7.26871,-7.26879l-1.45376,-1.45364l-0.72685,-0.72697l-1.45376,-1.45364l-0.72685,-0.72697l-0.72688,-0.72667l-2.90749,-2.90757l-3.63436,-3.63425l-2.18061,-2.18061l-1.45373,-1.45393l-1.45376,-1.45364l-0.72685,-0.72697l-0.72688,-0.72667l-7.99559,-7.99575l-0.72697,-0.72667l-0.72667,-0.72697l-0.72697,-0.72697l-0.72697,-0.72667l-1.45364,-1.45393l-2.90757,-2.90729l-7.99547,-7.99575c-0.01439,-0.01439 -0.02859,-0.02887 -0.04259,-0.04345l-0.3134,-0.32924c-0.02763,-0.02916 -0.05458,-0.059 -0.08087,-0.08951l-0.297,-0.3442c-0.02667,-0.03088 -0.05257,-0.06236 -0.07771,-0.0944l-0.27945,-0.3583c-0.02437,-0.03146 -0.04806,-0.06351 -0.07109,-0.09613l-0.26189,-0.37154c-0.02341,-0.03319 -0.04595,-0.06696 -0.06763,-0.10131l-0.24318,-0.38392c-0.02187,-0.03435 -0.04279,-0.06917 -0.06274,-0.10446l-0.22391,-0.39543c-0.01996,-0.03511 -0.03904,-0.07071 -0.05727,-0.10677l-0.20433,-0.40608c-0.01803,-0.03607 -0.03521,-0.07253 -0.05152,-0.10936l-0.18419,-0.41557c-0.01649,-0.03703 -0.03204,-0.07444 -0.04662,-0.11224l-0.16347,-0.42392c-0.01439,-0.03741 -0.02782,-0.07512 -0.0403,-0.11311l-0.14275,-0.43169c-0.01285,-0.03876 -0.02475,-0.07771 -0.03568,-0.11684l-0.12116,-0.43802c-0.01075,-0.03895 -0.02053,-0.07809 -0.02936,-0.11742l-0.09958,-0.44349c-0.00882,-0.03953 -0.01669,-0.07914 -0.0236,-0.11885l-0.07771,-0.44781c-0.00691,-0.03991 -0.01285,-0.08001 -0.01784,-0.1203l-0.05555,-0.45097c-0.0048,-0.03953 -0.00873,-0.07914 -0.0118,-0.11885l-0.03367,-0.45327c-0.00307,-0.04125 -0.00508,-0.0825 -0.00604,-0.12375l-0.01094,-0.45443c-0.00096,-0.03953 -0.00096,-0.07904 0,-0.11857l0.01094,-0.45443c0.00096,-0.04125 0.00298,-0.0825 0.00604,-0.12375l0.03367,-0.45327c0.00307,-0.03972 0.007,-0.07934 0.0118,-0.11885l0.05555,-0.45097c0.00499,-0.0403 0.01094,-0.08039 0.01784,-0.1203l0.07771,-0.44781c0.00691,-0.03972 0.01477,-0.07934 0.0236,-0.11885l0.09958,-0.44349c0.00882,-0.03933 0.01861,-0.07847 0.02936,-0.11742l0.12116,-0.43802c0.01094,-0.03914 0.02283,-0.07809 0.03568,-0.11684l0.14275,-0.43169c0.01247,-0.03799 0.02591,-0.07569 0.0403,-0.11311l0.16347,-0.42392c0.01458,-0.0378 0.03013,-0.07521 0.04662,-0.11224l0.18419,-0.41557c0.01631,-0.03684 0.03348,-0.07327 0.05152,-0.10931l0.20433,-0.40608c0.01823,-0.03605 0.03732,-0.07163 0.05727,-0.10674l0.22391,-0.39543c0.01996,-0.03542 0.04086,-0.07033 0.06274,-0.10473l0.24318,-0.38389c0.02168,-0.03424 0.04422,-0.06795 0.06763,-0.10111l0.26189,-0.37159c0.02283,-0.0326 0.04653,-0.06462 0.07109,-0.09606l0.27945,-0.3583c0.02514,-0.03223 0.05103,-0.06381 0.07771,-0.09474l0.297,-0.34414c0.02628,-0.03045 0.05334,-0.06024 0.08116,-0.08939l0.3134,-0.32917c0.01381,-0.01462 0.02792,-0.02906 0.04231,-0.04334l3.40286,-3.40281l7.2685,-7.2687l1.45393,-1.45376l2.18061,-2.18061l0.72667,-0.72688l1.45393,-1.45373l0.72667,-0.72688l1.45393,-1.45376l5.08801,-5.08809l2.18064,-2.18062l0.72685,-0.72687l0.72688,-0.72687l6.54182,-6.54184l0.72688,-0.72688l0.72688,-0.72685l0.72688,-0.72688l2.90746,-2.90749l0.72688,-0.72688l6.54185,-6.54182l0.72686,-0.72688l5.08809,-5.0881l3.63436,-3.63434l0.72685,-0.72697l0.72688,-0.72667l7.2687,-7.26879l2.18061,-2.18061l0.72688,-0.72697l5.0881,-5.08818l0.72688,-0.72667l7.26877,-7.26879l13.08365,-13.08365c0.01439,-0.01439 0.02887,-0.02859 0.04345,-0.04259l0.32924,-0.3134c0.02916,-0.02763 0.059,-0.05458 0.08951,-0.08087l0.3442,-0.297c0.03051,-0.02647 0.06168,-0.0521 0.09353,-0.07684l0.3583,-0.27973c0.03204,-0.02514 0.06465,-0.0494 0.09785,-0.07281l0.37154,-0.2616c0.03319,-0.02321 0.06686,-0.04566 0.10101,-0.06735l0.3842,-0.24318c0.03415,-0.02168 0.06878,-0.0424 0.1039,-0.06216l0.39543,-0.22391c0.03492,-0.01976 0.07032,-0.03866 0.10619,-0.0567l0.40578,-0.20433c0.03626,-0.01842 0.07291,-0.03578 0.10994,-0.0521l0.41557,-0.18419c0.03664,-0.01631 0.07358,-0.03165 0.1108,-0.04604l0.42392,-0.16375c0.03837,-0.01477 0.07703,-0.02859 0.11598,-0.04144l0.43169,-0.14245c0.03818,-0.01266 0.07675,-0.02437 0.1157,-0.03511l0.43802,-0.12116c0.03876,-0.01075 0.0778,-0.02053 0.11713,-0.02936l0.44349,-0.09958c0.03953,-0.00882 0.07914,-0.01669 0.11885,-0.0236l0.44781,-0.07771c0.03953,-0.00691 0.07914,-0.01276 0.11885,-0.01756l0.45097,-0.05583c0.04048,-0.00499 0.08116,-0.00902 0.12202,-0.01208l0.45327,-0.03338c0.0401,-0.00287 0.0802,-0.00489 0.1203,-0.00604l0.45443,-0.01122c0.04067,-0.00096 0.08135,-0.00096 0.12202,0l0.45443,0.01122c0.0401,0.00115 0.0802,0.00317 0.1203,0.00604l0.45327,0.03338c0.04086,0.00307 0.08154,0.00709 0.12202,0.01208l0.45097,0.05583c0.03972,0.0048 0.07934,0.01065 0.11885,0.01756l0.44781,0.07771c0.03972,0.00691 0.07934,0.01477 0.11885,0.0236l0.44349,0.09958c0.03933,0.00882 0.07838,0.01861 0.11713,0.02936l0.43802,0.12116c0.03895,0.01075 0.07752,0.02245 0.1157,0.03511l0.43169,0.14245c0.03895,0.01285 0.07761,0.02667 0.11598,0.04144l0.42392,0.16375c0.03722,0.01439 0.07416,0.02974 0.1108,0.04604l0.41557,0.18419c0.03684,0.01631 0.0733,0.03348 0.10936,0.05152l0.40608,0.20433c0.03607,0.01823 0.07166,0.03732 0.10677,0.05727l0.39543,0.22391c0.03531,0.01996 0.07013,0.04086 0.10446,0.06274l0.38392,0.24318c0.03396,0.02148 0.06744,0.04375 0.10044,0.06677l0.37154,0.2616c0.03319,0.02341 0.06581,0.04767 0.09785,0.07281l0.3583,0.27973c0.03185,0.02475 0.06302,0.05036 0.09353,0.07684l0.3442,0.297c0.03051,0.02628 0.06034,0.05324 0.08951,0.08087l0.32924,0.3134c0.01458,0.01401 0.02906,0.0282 0.04345,0.04259l0.49557,0.49529l2.90729,2.90757l12.35697,12.35697l7.26879,7.2685l0.72667,0.72697l0.72697,0.72697l0.72697,0.72667l1.45364,1.45393l0.72697,0.72667l1.45364,1.45393l2.90757,2.90729l6.54182,6.54182l0.72667,0.72697l0.72697,0.72685l0.72697,0.72688l0.72697,0.72685l0.72667,0.72688l0.72697,0.72688l0.72697,0.72685l0.72667,0.7269l0.72697,0.72685l2.90757,2.90749l2.18061,2.18061l7.2685,7.2687l0.72697,0.72688l2.18061,2.18061l7.26879,7.26869l1.45364,1.45373l0.72697,0.72687l3.63425,3.63434l1.45393,1.45376l0.72667,0.72685l0.72697,0.72688l7.26879,7.2687l5.0879,5.0881l2.90757,2.90749l0.72697,0.72688l0.72667,0.72685l0.72697,0.72685c0.01439,0.01429 0.0285,0.02876 0.04231,0.0434l0.3134,0.32917c0.02801,0.02941 0.05525,0.0595 0.08174,0.09025l0.29672,0.34414c0.02628,0.03034 0.05171,0.0613 0.07626,0.09287l0.27973,0.3583c0.02514,0.0321 0.0494,0.0648 0.07281,0.09811l0.2616,0.37159c0.02302,0.03279 0.04527,0.06613 0.06677,0.10001l0.24318,0.38389c0.02187,0.03442 0.04288,0.06936 0.06302,0.10481l0.22361,0.39543c0.01996,0.0351 0.03895,0.07065 0.05698,0.10669l0.20433,0.40608c0.01823,0.03603 0.0355,0.07246 0.0518,0.10931l0.18419,0.41557c0.01631,0.03664 0.03165,0.07358 0.04604,0.1108l0.16375,0.42392c0.01477,0.03837 0.02859,0.07703 0.04144,0.11598l0.14245,0.43169c0.01266,0.03818 0.02437,0.07665 0.03511,0.1154l0.12116,0.43802c0.01075,0.03895 0.02053,0.07809 0.02936,0.11742l0.09958,0.44349c0.00882,0.03953 0.01669,0.07914 0.0236,0.11885l0.07771,0.44781c0.00691,0.03953 0.01276,0.07914 0.01756,0.11885l0.05583,0.45097c0.00499,0.04048 0.00902,0.08116 0.01208,0.12202l0.03338,0.45327c0.00287,0.0401 0.00489,0.0802 0.00604,0.1203l0.01122,0.45443c0.00096,0.04067 0.00096,0.08135 0,0.12202l-0.01122,0.45443c-0.00115,0.0401 -0.00317,0.0802 -0.00604,0.1203zM375.31674,258.40228l-0.02446,-0.33183l-0.04086,-0.33038l-0.05727,-0.32924l-0.0731,-0.3252l-0.08893,-0.32175l-0.10418,-0.31571l-0.12001,-0.31053l-0.13526,-0.30535l-0.14994,-0.29787l-0.16404,-0.2898l-0.17814,-0.28147l-0.19196,-0.27226l-0.20519,-0.26275l-0.21757,-0.25269l-0.25038,-0.26305l-0.70567,-0.70544l-0.72697,-0.7269l-0.72667,-0.72685l-2.90757,-2.90749l-5.08818,-5.08806l-7.2685,-7.26873l-0.72697,-0.72685l-0.72697,-0.72688l-0.72667,-0.72688l-0.72697,-0.72685l-3.63425,-3.63436l-0.72697,-0.72685l-1.45364,-1.45376l-7.26879,-7.26871l-2.18061,-2.18061l-0.72697,-0.72685l-7.26879,-7.26873l-2.18061,-2.18058l-2.90729,-2.90749l-0.72697,-0.72688l-0.72697,-0.72685l-0.72667,-0.7269l-0.72697,-0.72685l-0.72697,-0.72688l-0.72667,-0.72688l-0.72697,-0.72685l-0.72697,-0.72688l-0.72667,-0.72688l-6.54182,-6.54168l-5.81515,-5.81515l-0.72697,-0.72667l-0.72667,-0.72697l-21.07941,-21.07941l-2.90757,-2.90729l-0.47371,-0.474l-0.26361,-0.25095l-0.25269,-0.21786l-0.26247,-0.20491l-0.27226,-0.19196l-0.28147,-0.17814l-0.28952,-0.16404l-0.29815,-0.14994l-0.30535,-0.13526l-0.31053,-0.12001l-0.31599,-0.10418l-0.32147,-0.08893l-0.3252,-0.0731l-0.32895,-0.05698l-0.33068,-0.04116l-0.33183,-0.02446l-0.33327,-0.00806l-0.33327,0.00806l-0.33183,0.02446l-0.33068,0.04116l-0.32895,0.05698l-0.3252,0.0731l-0.32147,0.08893l-0.31599,0.10418l-0.31053,0.12001l-0.30506,0.13526l-0.29758,0.14965l-0.29038,0.16461l-0.28175,0.17814l-0.27196,0.19167l-0.26247,0.20491l-0.25269,0.21786l-0.26361,0.25095l-13.06206,13.06206l-7.2687,7.26879l-0.72685,0.72697l-5.0881,5.0879l-0.72688,0.72697l-2.18061,2.18061l-7.2687,7.26873l-0.72688,0.72688l-0.72688,0.72685l-3.63434,3.63436l-5.08811,5.0881l-1.45374,1.45376l-3.63434,3.63434l-6.54185,6.54185l-0.72685,0.72688l-0.72688,0.72685l-6.54182,6.54185l-0.72688,0.72687l-0.72688,0.72685l-2.18061,2.18064l-7.2687,7.2687l-1.45364,1.45376l-0.72697,0.72685l-2.18061,2.18061l-1.45364,1.45376l-7.26879,7.2687l-3.38129,3.3814l-0.25095,0.26361l-0.21757,0.25211l-0.20491,0.26275l-0.19253,0.27282l-0.17785,0.28089l-0.16404,0.2898l-0.14994,0.29787l-0.13497,0.30477l-0.12001,0.31111l-0.10476,0.31657l-0.08864,0.32089l-0.0731,0.3252l-0.05698,0.32837l-0.04086,0.33125l-0.02446,0.33183l-0.00806,0.33327l0.00806,0.33327l0.02446,0.33183l0.04086,0.33125l0.05698,0.32837l0.0731,0.3252l0.08864,0.32089l0.10476,0.31657l0.12001,0.31111l0.13497,0.30477l0.14994,0.29787l0.16404,0.2898l0.17785,0.28089l0.19224,0.27282l0.20519,0.26305l0.21757,0.25211l0.25095,0.26361l7.97418,7.97388l2.90729,2.90757l0.72697,0.72697l0.72697,0.72667l0.72667,0.72697l0.72697,0.72697l0.72697,0.72667l0.72667,0.72697l0.72697,0.72697l7.26867,7.2685l0.72688,0.72697l2.18061,2.18061l1.45376,1.45364l2.18061,2.18061l3.63434,3.63454l2.90749,2.90729l1.45376,1.45393l1.45373,1.45364l0.72688,0.72697l1.45373,1.45364l7.26873,7.26879l0.72685,0.72697l0.72688,0.72667l1.45373,1.45393l0.72688,0.72667l4.36125,4.36121l0.72685,0.72697l0.72688,0.72697l4.36121,4.36121l0.72688,0.72667l1.45376,1.45393l5.81495,5.81486l0.72688,0.72697l7.26879,7.2685l0.72667,0.72697l14.28432,14.28432l0.26361,0.25095l0.25269,0.21786l0.26247,0.20519l0.27196,0.19138l0.28204,0.17843l0.2898,0.16404l0.29787,0.14994l0.30506,0.13526l0.31053,0.12001l0.31571,0.10418l0.32175,0.08893l0.3252,0.0731l0.32895,0.05698l0.33068,0.04116l0.33211,0.02446l0.33297,0.00806l0.33297,-0.00806l0.33211,-0.02446l0.33068,-0.04116l0.32895,-0.05698l0.3252,-0.0731l0.32175,-0.08893l0.31571,-0.10418l0.31053,-0.12001l0.30535,-0.13526l0.29815,-0.14994l0.28952,-0.16404l0.28147,-0.17814l0.27226,-0.19196l0.26247,-0.20491l0.25269,-0.21786l0.26333,-0.25095l0.70567,-0.70538l12.35668,-12.35668l5.81486,-5.81515l6.54211,-6.54182l21.80609,-21.80609l0.72697,-0.72667l0.72667,-0.72697l0.72697,-0.72697l0.72697,-0.72667l2.90729,-2.90757l6.54182,-6.54182l1.45393,-1.45364l0.72667,-0.72697l3.63454,-3.63425l1.45364,-1.45393l5.81515,-5.81486l2.90729,-2.90757l5.08818,-5.0879l9.44939,-9.44939l0.72667,-0.72697l0.72697,-0.72667l0.72697,-0.72697l1.20067,-1.20096l0.25067,-0.26305l0.21757,-0.25239l0.20549,-0.26305l0.19167,-0.27254l0.17814,-0.28117l0.16404,-0.2898l0.14994,-0.29787l0.13526,-0.30535l0.12001,-0.31053l0.10418,-0.31571l0.08893,-0.32175l0.0731,-0.3252l0.05727,-0.32924l0.04086,-0.33038l0.02446,-0.33183l0.00806,-0.33327z"></path>
    </g>
</svg>
